<svg width="375" height="342" xmlns="http://www.w3.org/2000/svg" xmlns:xlink="http://www.w3.org/1999/xlink" xml:space="preserve" overflow="hidden"><defs><clipPath id="clip0"><rect x="301" y="167" width="375" height="342"/></clipPath></defs><g clip-path="url(#clip0)" transform="translate(-301 -167)"><path d="M576.225 355.458C573.689 355.473 572.279 355.572 572.264 355.749 572.204 356.464 594.476 358.274 621.976 359.79 623.382 359.865 624.705 359.933 626.081 360.005 625.971 359.132 625.839 358.278 625.737 357.405 624.546 357.337 623.409 357.265 622.195 357.201 601.571 356.063 583.829 355.413 576.225 355.458ZM630.953 357.707C631.047 358.569 631.168 359.416 631.263 360.277 654.333 361.434 671.855 361.872 671.908 361.241 671.961 360.602 654.257 359.098 630.953 357.707Z" fill="#C55A11"/><path d="M675.956 307.371C673.219 307.186 653.097 311.911 627.759 315.736 627.819 317.002 627.88 318.264 627.948 319.519 655.414 315.263 676.556 308.441 676.273 307.481 676.254 307.417 676.144 307.383 675.956 307.368ZM622.883 316.469C594.911 320.49 572.204 322.985 572.264 324.005 572.325 325.022 594.953 324.217 623 320.256 622.955 318.997 622.921 317.731 622.883 316.469Z" fill="#C55A11"/><path d="M572.873 377.13C572.695 377.123 572.593 377.145 572.563 377.202 572.105 378.12 591.086 387.456 614.655 398.348 621.489 401.508 627.687 404.418 633.39 407.098 633.145 405.737 632.91 404.362 632.665 402.967 627.687 400.423 622.184 397.729 616.333 395.022 594.163 384.769 575.496 377.27 572.873 377.13ZM637.639 405.564C637.858 406.92 638.054 408.066 638.27 409.385 649.434 414.619 657.258 418.21 657.595 417.666 657.954 417.084 649.941 412.061 637.639 405.564Z" fill="#C55A11"/><path d="M385.178 167C380.421 191.196 376.923 214.376 379.121 237.495 371.502 252.515 364.64 266.345 358.095 279.754 359.87 280.627 361.262 281.293 363.123 282.215 369.921 268.42 377.052 254.159 385.017 238.516 381.436 216.459 383.377 194.031 386.295 170.027 403.185 185.395 422.25 201.076 435.252 220.567 450.451 220.129 466.248 219.486 481.68 219.709 490.074 219.83 498.363 220.208 506.58 220.99 529.185 222.914 550.974 228.088 568.813 239.48 585.991 225.306 609.141 217.105 628.768 207.558 622.524 256.627 621.148 300.632 624.059 341.123 626.595 370.807 632.249 401.274 636.422 423.554 638.311 433.676 639.853 442.127 640.59 450.926 641.244 458.866 641.078 465.824 639.528 472.261 637.771 479.658 634.105 485.829 630.427 490.403 619.493 504.009 610.124 508.408 610.343 508.745 610.562 509.081 620.238 505.506 632.177 491.869 636.217 487.251 640.299 480.886 642.435 473.002 644.257 466.195 644.661 458.844 644.151 450.668 643.599 441.647 642.212 432.973 640.507 422.828 636.773 400.597 631.55 369.938 629.395 340.699 625.824 299.699 626.028 255.044 630.631 204.984 611.242 213.148 587.424 220.272 568.605 234.052 550.683 221.814 529.136 216.168 507.169 214.217 499.062 213.582 490.925 213.363 482.735 213.405 467.662 213.48 452.422 214.448 437.871 215.211 423.083 195.887 402.751 181.067 385.178 167ZM356.473 283.118C350.016 296.415 343.861 309.352 338.265 321.824 340.163 322.009 341.958 322.176 343.994 322.387 349.429 310.539 355.235 298.316 361.435 285.677 359.736 284.811 358.092 283.965 356.473 283.118ZM336.811 325.105C331.075 338.004 325.697 350.711 320.656 363.592 318.667 368.675 316.938 373.362 315.213 378.06 316.888 377.395 318.791 376.673 321.172 375.841 322.52 372.394 323.762 369.102 325.252 365.421 330.6 352.197 336.361 339.119 342.369 325.914 340.298 325.63 338.727 325.377 336.811 325.105ZM319.885 379.13C317.892 379.583 315.766 380.082 314.35 380.358 307.364 399.668 302.706 416.343 301.305 433.804 300.678 441.624 301.006 448.854 302.391 455.544 303.719 461.92 306.033 467.601 308.562 472.363 320.028 493.921 329.427 503.484 329.828 503.238 330.229 502.992 321.296 492.466 310.922 471.161 308.645 466.493 306.597 460.994 305.512 454.939 304.359 448.563 304.232 441.673 304.99 434.137 306.781 416.297 312.093 399.376 319.885 379.13Z" fill="#C55A11"/><path d="M401.084 357C396.506 356.929 377.494 360.224 355.088 365.841 329.481 372.266 309.302 379.64 309.668 380.811 310.033 381.987 330.671 376.559 356.172 370.168 381.673 363.773 402.389 358.44 402.129 357.238 402.096 357.087 401.738 357.008 401.084 356.997Z" fill="#C55A11"/><path d="M314.197 320.086C312.721 320.097 311.911 320.203 311.881 320.407 311.718 321.496 333.783 325.041 361.131 328.314 388.479 331.591 410.806 333.363 410.969 332.271 411.131 331.182 389.066 327.641 361.719 324.364 339.499 321.703 320.593 320.033 314.197 320.086Z" fill="#C55A11"/><path d="M326.213 265.109C326.16 265.12 326.123 265.139 326.106 265.169 325.55 266.118 343.663 276.954 367.029 288.561 390.396 300.171 410.397 307.526 410.84 306.525 411.283 305.519 392.188 296.615 368.934 285.061 346.406 273.866 327.855 264.803 326.213 265.109Z" fill="#C55A11"/><path d="M521.781 355.451C521.263 355.545 520.027 357.628 518.047 360.776 516.055 363.94 512.842 368.891 508.004 371.287 507.086 371.775 506.103 372.175 505.056 372.485 502.573 373.226 499.95 373.411 497.539 373.309 487.939 372.874 481.03 369.412 480.671 370.183 480.316 370.954 486.533 375.838 497.263 376.953 500.03 377.244 503.11 377.089 506.16 376.17 507.438 375.785 508.662 375.278 509.811 374.658 515.737 371.264 518.825 365.618 520.348 361.963 521.951 358.108 522.329 355.64 521.875 355.458 521.849 355.447 521.815 355.443 521.781 355.451Z" fill="#C55A11"/><path d="M500.907 329.349C486.918 329.391 477.436 329.882 477.428 330.684 477.421 331.56 488.631 332.275 503.843 332.524 503.654 332.804 503.461 333.084 503.254 333.382 501.923 335.245 500.442 337.06 498.828 338.912 498.556 339.221 498.28 339.531 498.008 339.838 495.88 342.222 493.82 344.365 491.628 346.267 489.817 347.691 488.585 349.056 487.232 349.203 487.168 349.139 487.013 349.033 486.764 348.935 486.144 348.504 485.558 347.869 484.968 347.211 483.23 345.25 481.71 342.986 480.505 341.149 478.736 338.45 477.662 336.633 476.657 334.883 476.147 333.991 475.765 333.314 475.501 332.811 475.368 332.551 475.27 332.358 475.206 332.21 475.1 331.972 475.157 331.942 475.066 331.946 474.952 331.95 474.798 331.984 474.707 332.286 474.65 332.494 474.639 332.728 474.665 333.042 474.714 333.711 474.892 334.467 475.225 335.51 475.814 337.369 476.759 339.652 478.226 342.479 479.269 344.494 480.652 346.962 482.459 349.286 483.044 350.054 483.759 350.889 484.685 351.645 485.135 352.166 486.091 352.677 487.576 352.684 490.369 352.242 492.399 350.613 494.035 349.113 496.45 347.117 498.684 344.868 500.888 342.408 501.171 342.09 501.451 341.773 501.734 341.448 503.412 339.531 504.966 337.589 506.364 335.559 506.908 334.773 507.464 333.926 507.944 332.955 508.088 332.687 508.25 332.297 508.379 331.772 508.473 331.515 508.11 330.672 507.165 329.361 504.996 329.349 502.906 329.342 500.907 329.349Z" fill="#C55A11"/><path d="M447.578 293.882C443.099 293.886 439.462 297.503 439.435 301.982 439.248 306.461 442.715 310.251 447.193 310.463 451.688 310.667 455.498 307.19 455.705 302.696 455.715 302.477 455.721 302.254 455.721 302.031 455.721 297.533 452.077 293.886 447.578 293.882Z" fill="#C55A11"/><path d="M537.356 303.494C532.885 303.494 529.245 307.095 529.208 311.57 529.007 316.045 532.454 319.844 536.929 320.074 541.423 320.29 545.244 316.824 545.46 312.33 545.471 312.107 545.482 311.884 545.482 311.665 545.494 307.164 541.858 303.505 537.356 303.494Z" fill="#C55A11"/><path d="M392.188 186.676C391.609 186.676 391.144 186.891 390.84 187.284 390.376 187.942 390.176 188.539 390.088 188.974 389.59 190.788 389.408 192.602 389.254 194.254 388.691 200.086 388.633 205.91 388.65 210.702 388.675 217.747 388.933 223.027 389.371 227.419 389.617 229.891 389.848 231.475 390.207 232.9 390.376 233.584 390.526 234.022 390.738 234.4 390.83 234.566 390.917 234.68 391.023 234.759 391.192 234.884 391.32 234.816 391.348 234.789L391.348 234.785C391.38 234.755 391.307 234.763 391.24 234.631 391.189 234.529 391.164 234.438 391.121 234.253 391.025 233.81 391.003 233.527 390.937 232.779 390.802 231.15 390.767 230.012 390.717 227.34 390.634 222.748 390.647 217.955 390.869 210.733 391.016 205.993 391.221 200.173 391.861 194.526 392.045 192.95 392.224 191.362 392.627 189.915 395.543 192.595 398.531 195.327 401.635 198.154 409.54 205.347 417.125 212.169 423.666 217.997 424.015 218.42 422.419 219.051 421.244 219.962 419.037 221.508 416.439 222.763 414.256 223.832 403.926 228.878 397.386 232.189 397.572 232.533 397.759 232.881 404.381 230.318 415.096 225.65 417.34 224.679 420.055 223.485 422.533 221.871 423.777 221.149 425.634 219.66 425.699 216.984 419.237 210.884 411.607 203.748 403.549 196.295 400.046 193.059 396.635 189.919 393.344 186.906 392.923 186.748 392.535 186.672 392.188 186.672Z" fill="#C55A11"/><path d="M619.467 217.781C619.331 217.789 619.187 217.808 619.039 217.831 615.211 220.117 611.235 222.506 607.153 224.974 597.761 230.651 588.852 236.108 581.293 240.784 580.821 243.418 582.34 245.247 583.414 246.207 585.515 248.282 587.934 250.002 589.937 251.408 599.496 258.132 605.467 261.972 605.72 261.669 605.97 261.371 600.229 256.813 591.124 249.794 589.2 248.305 586.91 246.555 585.058 244.593 584.09 243.467 582.654 242.53 583.081 242.182 590.663 237.79 599.465 232.635 608.657 227.177 612.267 225.034 615.744 222.959 619.138 220.922 619.24 222.419 619.092 224.01 618.956 225.59 618.45 231.248 617.479 236.993 616.67 241.668 615.434 248.785 614.481 253.483 613.476 257.962 612.89 260.569 612.626 261.681 612.168 263.245 611.953 263.967 611.874 264.239 611.692 264.651 611.613 264.825 611.571 264.912 611.499 264.999 611.409 265.116 611.337 265.097 611.359 265.131L611.359 265.131C611.382 265.162 611.496 265.256 611.685 265.165 611.805 265.112 611.915 265.018 612.036 264.874 612.32 264.546 612.558 264.145 612.86 263.51 613.499 262.183 614.039 260.683 614.78 258.309 616.091 254.099 617.407 248.978 618.851 242.08 619.833 237.39 620.944 231.671 621.568 225.843 621.749 224.195 621.935 222.381 621.814 220.506 621.814 220.064 621.738 219.437 621.417 218.7 621.111 218.08 620.427 217.728 619.467 217.781Z" fill="#C55A11"/></g></svg>